<svg xmlns="http://www.w3.org/2000/svg" xmlns:xlink="http://www.w3.org/1999/xlink" width="500" zoomAndPan="magnify" viewBox="0 0 375 374.999991" height="500" preserveAspectRatio="xMidYMid meet" version="1.0"><defs><clipPath id="6afd2638da"><path d="M 0 71.953125 L 375 71.953125 L 375 302.953125 L 0 302.953125 Z M 0 71.953125 " clip-rule="nonzero"/></clipPath><clipPath id="973daceb75"><path d="M 0 191.238281 L 104.25 191.238281 L 104.25 302.953125 L 0 302.953125 Z M 0 191.238281 " clip-rule="nonzero"/></clipPath></defs><g clip-path="url(#6afd2638da)"><path fill="#000000" d="M 200.832031 125.300781 L 195.164062 128.8125 L 213.710938 91.082031 C 219.46875 79.375 231.394531 71.953125 244.445312 71.953125 C 257.613281 71.953125 269.605469 79.496094 275.3125 91.363281 L 348.707031 243.605469 C 349.972656 246.25 352.015625 248.4375 354.566406 249.890625 C 359.160156 252.511719 364.820312 252.402344 369.3125 249.621094 L 374.980469 246.109375 L 356.433594 283.839844 C 350.671875 295.546875 338.757812 302.96875 325.699219 302.96875 C 312.53125 302.96875 300.535156 295.425781 294.832031 283.558594 L 221.4375 131.316406 C 220.171875 128.671875 218.125 126.484375 215.578125 125.03125 C 210.984375 122.410156 205.324219 122.519531 200.832031 125.300781 Z M 81.242188 125.03125 C 83.792969 126.484375 85.835938 128.671875 87.101562 131.316406 L 160.496094 283.558594 C 166.195312 295.425781 178.195312 302.96875 191.363281 302.96875 C 204.414062 302.96875 216.339844 295.546875 222.097656 283.839844 L 240.644531 246.109375 L 234.976562 249.621094 C 230.484375 252.410156 224.828125 252.511719 220.234375 249.890625 C 217.683594 248.4375 215.636719 246.25 214.371094 243.605469 L 140.976562 91.363281 C 135.273438 79.496094 123.277344 71.953125 110.109375 71.953125 C 97.058594 71.953125 85.136719 79.375 79.375 91.082031 L 60.828125 128.8125 L 66.496094 125.300781 C 70.988281 122.519531 76.648438 122.410156 81.242188 125.03125 Z M 2.207031 262.519531 L 12.347656 283.566406 C 18.046875 295.433594 30.046875 302.976562 43.214844 302.976562 C 56.265625 302.976562 68.191406 295.554688 73.949219 283.847656 L 92.496094 246.117188 L 86.832031 249.628906 C 82.339844 252.417969 76.679688 252.519531 72.085938 249.898438 C 69.535156 248.445312 67.492188 246.257812 66.222656 243.613281 L 50.46875 210.933594 C 44.4375 198.425781 26.644531 198.355469 20.519531 210.816406 L 2.265625 247.941406 C 0.00390625 252.535156 -0.0117188 257.910156 2.207031 262.519531 Z M 2.207031 262.519531 " fill-opacity="1" fill-rule="nonzero"/></g><g clip-path="url(#973daceb75)"><path fill="#8c52ff" d="M 200.832031 125.324219 L 195.164062 128.835938 L 213.710938 91.089844 C 219.46875 79.375 231.394531 71.953125 244.445312 71.953125 C 257.613281 71.953125 269.605469 79.5 275.3125 91.371094 L 348.707031 243.675781 C 349.972656 246.320312 352.015625 248.511719 354.566406 249.964844 C 359.160156 252.585938 364.820312 252.476562 369.3125 249.691406 L 374.980469 246.179688 L 356.433594 283.925781 C 350.671875 295.640625 338.757812 303.0625 325.699219 303.0625 C 312.53125 303.0625 300.535156 295.515625 294.832031 283.644531 L 221.4375 131.339844 C 220.171875 128.695312 218.125 126.503906 215.578125 125.050781 C 210.984375 122.429688 205.324219 122.539062 200.832031 125.324219 Z M 81.242188 125.050781 C 83.792969 126.503906 85.835938 128.695312 87.101562 131.339844 L 160.496094 283.644531 C 166.195312 295.515625 178.195312 303.0625 191.363281 303.0625 C 204.414062 303.0625 216.339844 295.640625 222.097656 283.925781 L 240.644531 246.179688 L 234.976562 249.691406 C 230.484375 252.484375 224.828125 252.585938 220.234375 249.964844 C 217.683594 248.511719 215.636719 246.320312 214.371094 243.675781 L 140.976562 91.371094 C 135.273438 79.5 123.277344 71.953125 110.109375 71.953125 C 97.058594 71.953125 85.136719 79.375 79.375 91.089844 L 60.828125 128.835938 L 66.496094 125.324219 C 70.988281 122.539062 76.648438 122.429688 81.242188 125.050781 Z M 2.207031 262.597656 L 12.347656 283.652344 C 18.046875 295.523438 30.046875 303.070312 43.214844 303.070312 C 56.265625 303.070312 68.191406 295.648438 73.949219 283.933594 L 92.496094 246.1875 L 86.832031 249.699219 C 82.339844 252.492188 76.679688 252.59375 72.085938 249.972656 C 69.535156 248.519531 67.492188 246.328125 66.222656 243.683594 L 50.46875 210.992188 C 44.4375 198.476562 26.644531 198.40625 20.519531 210.875 L 2.265625 248.011719 C 0.00390625 252.605469 -0.0117188 257.984375 2.207031 262.597656 Z M 2.207031 262.597656 " fill-opacity="1" fill-rule="nonzero"/></g></svg>